<?xml version="1.0" encoding="utf-8"?>
<!-- Generator: Adobe Illustrator 27.5.0, SVG Export Plug-In . SVG Version: 6.00 Build 0)  -->
<svg version="1.1" id="White" xmlns="http://www.w3.org/2000/svg" xmlns:xlink="http://www.w3.org/1999/xlink" x="0px" y="0px"
	 viewBox="0 0 792 612" style="enable-background:new 0 0 792 612;" xml:space="preserve">
<style type="text/css">
	.st0{fill:#FFFFFF;}
</style>
<g>
	<path class="st0" d="M289.5,330.47c-12.13,0-19.66-9.34-19.66-24.32c0-14.94,7.53-24.19,19.66-24.19
		c12.47,0,19.94,9.11,19.94,24.36C309.44,321.44,301.97,330.47,289.5,330.47 M317.83,305.39c0-16.76-10.34-27.11-27.01-27.11
		c-17.81,0-29.37,11.11-29.37,28.27c0,17.3,10.12,27.61,27.13,27.61C306.62,334.15,317.83,323.12,317.83,305.39z"/>
	<path class="st0" d="M410.02,281.7l11.61,2.04l1.32,35.21l-32.35-39.52h-16.32v2.27l8.73,2l-0.34,45.03l-7.82,1.86
		c-2.18-0.62-5.69-1.55-10.34-7.33c0,0-12.07-14.98-13.62-16.85c4.83-1.33,12.53-4.89,12.53-13.96c0-5.96-3.22-13.02-18.62-13.02
		h-23.97v2.27l8.68,2v45.03l-8.68,2v2.26h23.8v-2.22l-7.7-2.05v-45.3c2.3-0.4,4.6-0.62,6.09-0.62c8.56,0,12.7,3.15,12.7,9.74
		c0,10.13-8.16,11.61-11.56,12.09c-1.15,0.13-2.47,0.18-3.67,0.18v2.26l2.98,0.98l12.59,16.36c4.19,5.47,7.29,8.58,21.55,8.58h21.09
		v-2.26l-10.52-2.04l-1.26-42.28l38.57,47.74h1.03l0.63-50.46l7.07-2.05v-2.22h-24.19V281.7z"/>
	<polygon class="st0" points="493.47,330.73 482.95,328.73 481.69,286.41 520.25,334.15 521.28,334.15 521.92,283.7 528.99,281.65 
		528.99,279.43 504.79,279.43 504.79,281.7 516.4,283.74 517.72,318.95 485.37,279.43 469.04,279.43 469.04,281.7 477.78,283.7 
		477.44,328.73 469.04,330.73 469.04,332.99 493.47,332.99 	"/>
	<path class="st0" d="M250.3,317.75c-1.66,5.47-4.08,12.72-16.5,12.72c-11.78,0-19.59-9.96-19.65-23.96
		c-0.12-14.85,7.24-24.54,20.12-24.54c10.92,0,14.14,6.66,15.34,13.78h2.64v-13.42c-2.99-1.73-11.15-4.04-18.16-4.04
		c-16.96,0-28.57,11.46-28.34,28.54c0.23,16.53,10.46,27.38,27.24,27.38c9.54,0,14.77-2.53,19.77-5.07l1.21-14.32h-2.82
		L250.3,317.75z"/>
	<path class="st0" d="M579.96,312.23l6.9-2v-2.22h-24.54v2.27l10.29,2v13.91c-3.62,2.86-7.65,4.54-13.85,4.32
		c-11.21-0.36-19.08-9.96-19.08-23.97c0-15.47,7.24-24.54,20.46-24.54c11.61,0,14.88,7.51,16.04,13.69h2.47v-13.25
		c-3.51-1.96-10.98-4.13-19.61-4.13c-17.01,0-27.87,11.16-27.76,28.58c0.06,16.18,10.69,27.03,26.96,27.3
		c11.21,0.22,17.12-2.93,21.72-5.69V312.23"/>
	<polygon class="st0" points="464.04,330.73 455.31,328.73 455.31,283.7 464.04,281.7 464.04,279.43 439.21,279.43 439.21,281.7 
		447.9,283.7 447.9,328.73 439.21,330.73 439.21,332.99 464.04,332.99 	"/>
</g>
</svg>
